<?xml version="1.0" encoding="UTF-8"?>
<svg xmlns="http://www.w3.org/2000/svg" xmlns:xlink="http://www.w3.org/1999/xlink" width="784.389pt" height="824.47pt" viewBox="0 0 784.389 824.47" version="1.1">
<defs>
<clipPath id="clip1">
  <path d="M 0 0 L 784.390625 0 L 784.390625 824.46875 L 0 824.46875 Z M 0 0 "/>
</clipPath>
</defs>
<g id="surface1">
<g clip-path="url(#clip1)" clip-rule="nonzero">
<path style=" stroke:none;fill-rule:nonzero;fill:rgb(0%,0%,0%);fill-opacity:1;" d="M 608.050781 337.511719 C 607.632813 337.652344 607.226563 337.722656 606.839844 337.722656 C 605.503906 337.722656 604.386719 336.851563 603.699219 335.273438 L 601.558594 330.359375 C 600.339844 327.574219 599.128906 324.789063 597.921875 322.003906 C 597.445313 320.894531 597.378906 320.027344 597.726563 319.496094 C 597.996094 319.085938 598.507813 318.878906 599.246094 318.878906 C 599.5625 318.878906 599.921875 318.917969 600.308594 318.996094 C 607.074219 320.386719 613.765625 320.800781 620.847656 321.242188 C 624.84375 321.488281 628.976563 321.746094 633.089844 322.195313 C 626.152344 329.179688 617.960938 334.191406 608.050781 337.511719 M 738.589844 501.273438 C 737.050781 499.507813 736.21875 497.359375 735.894531 494.3125 L 735.902344 494.320313 C 736.53125 493.785156 736.589844 493.136719 736.023438 492.457031 L 736.335938 486.988281 L 736.367188 486.972656 L 736.398438 486.941406 C 736.460938 486.882813 736.460938 486.847656 736.453125 486.664063 L 736.449219 486.566406 L 736.339844 486.570313 C 735.617188 475.257813 731.429688 464.5625 723.539063 453.875 C 716.746094 444.679688 707.695313 436.488281 695.863281 428.835938 C 694.234375 427.78125 692.980469 426.878906 692.871094 425.695313 C 692.796875 424.890625 693.273438 424.023438 694.324219 423.035156 C 701.851563 415.949219 706.871094 406.679688 710.113281 393.855469 C 710.519531 392.246094 711.039063 390.574219 711.546875 388.953125 C 713.59375 382.371094 715.710938 375.566406 711.789063 369.367188 C 706.996094 361.796875 708.753906 355.824219 711.363281 350.5 C 711.832031 349.550781 712.234375 348.488281 712.566406 347.34375 C 716.855469 332.496094 720.195313 316.539063 715.65625 300.453125 C 714.371094 295.914063 715.117188 293.679688 718.851563 290.878906 C 733.914063 279.570313 746.566406 266.140625 756.617188 251.269531 C 775.621094 223.304688 785.308594 190.273438 784.320313 156.449219 C 783.859375 139.199219 780.636719 121.785156 774.464844 104.804688 C 763.097656 73.53125 742.746094 46.996094 715.617188 28.070313 C 689.714844 10 658.671875 0.046875 628.195313 0.046875 C 620.492188 0.046875 612.769531 0.675781 605.246094 1.914063 C 543.769531 12.050781 501.230469 47.339844 478.808594 106.804688 C 468.179688 134.996094 466.503906 165.808594 473.824219 198.378906 C 473.902344 198.726563 474.015625 199.082031 474.128906 199.445313 C 474.535156 200.714844 474.949219 202.03125 473.835938 203.03125 C 473.351563 203.464844 472.839844 203.675781 472.261719 203.675781 C 471.46875 203.675781 470.65625 203.277344 469.871094 202.890625 C 469.496094 202.703125 469.128906 202.523438 468.761719 202.382813 C 455.339844 197.238281 441.761719 193.464844 428.398438 191.160156 C 414.417969 188.753906 400.40625 187.53125 386.753906 187.53125 C 363.007813 187.53125 339.410156 191.226563 316.625 198.515625 C 314.757813 199.109375 313.320313 199.507813 312.359375 199.507813 C 311.796875 199.507813 311.425781 199.375 311.191406 199.085938 C 310.621094 198.386719 310.828125 196.71875 311.410156 193.886719 C 319.382813 154.972656 313.933594 117.738281 295.210938 83.210938 C 267.382813 31.886719 214.605469 0 157.472656 0 C 126.316406 0 95.902344 9.601563 69.503906 27.761719 C 38.285156 49.238281 15.605469 81.324219 5.644531 118.109375 C -4.300781 154.820313 -1.023438 194.109375 14.871094 228.734375 C 40.667969 284.9375 96.347656 321.253906 156.722656 321.253906 C 159.800781 321.253906 162.917969 321.15625 165.992188 320.964844 L 166.242188 320.949219 C 168.503906 320.8125 170.289063 320.699219 171.671875 320.699219 C 173.769531 320.699219 174.808594 320.964844 175.25 321.609375 C 176.019531 322.738281 175.078125 325.15625 173.203125 329.96875 L 172.992188 330.511719 C 171.316406 334.816406 169.292969 337.335938 163.90625 337.488281 C 154.542969 337.75 146.9375 342.023438 141.296875 350.179688 C 136 357.847656 131.972656 365.621094 128.988281 373.953125 C 124.894531 385.378906 123.371094 397.464844 121.894531 409.152344 C 121.144531 415.113281 120.363281 421.28125 119.253906 427.277344 C 116.929688 439.851563 114.167969 454.476563 110.789063 468.9375 C 109.972656 472.433594 108.363281 473.992188 105.5625 473.992188 C 105.019531 473.992188 104.421875 473.933594 103.785156 473.816406 C 100.699219 473.253906 97.652344 472.96875 94.722656 472.96875 C 93.253906 472.96875 91.789063 473.039063 90.363281 473.179688 C 64.300781 475.769531 44.4375 490.464844 29.632813 518.101563 C 20.414063 535.304688 18.597656 554.648438 18.039063 571.296875 C 17.050781 600.761719 21.066406 625.894531 30.316406 648.128906 C 38.921875 668.808594 57.058594 680.273438 71.902344 687.949219 C 76.054688 690.097656 78.773438 692.789063 80.710938 696.683594 C 86.433594 708.167969 94.367188 716.496094 104.296875 721.433594 C 116.019531 727.261719 128.261719 730.21875 140.6875 730.21875 C 150.128906 730.21875 159.847656 728.507813 169.570313 725.140625 C 185.714844 719.542969 198.980469 708.484375 210.132813 691.332031 C 211.640625 689.015625 213.003906 687.9375 214.429688 687.9375 C 215.601563 687.9375 216.8125 688.675781 218.09375 690.191406 C 217.246094 695.621094 215.660156 700.90625 213.347656 705.964844 L 213.414063 706.117188 C 213.285156 706.550781 213.152344 706.980469 213.019531 707.410156 C 212.683594 708.503906 212.335938 709.636719 212.046875 710.761719 C 208.113281 726.101563 204.933594 744.324219 211.152344 763.210938 C 213.902344 771.550781 216.683594 779.882813 219.460938 788.214844 C 221.574219 794.542969 223.683594 800.875 225.78125 807.207031 C 229.738281 819.148438 234.386719 824.46875 240.863281 824.46875 C 245.316406 824.46875 250.605469 821.960938 257.507813 816.570313 C 264.023438 811.480469 270.160156 805.765625 276.097656 800.242188 C 278.113281 798.363281 280.128906 796.488281 282.160156 794.632813 C 319.863281 760.207031 358.828125 738.382813 401.289063 727.914063 C 427.066406 721.558594 449.167969 713.953125 468.855469 704.671875 C 498.203125 690.824219 520.976563 673.984375 538.46875 653.1875 C 539.871094 651.519531 541.019531 650.738281 542.082031 650.738281 C 543.269531 650.738281 544.453125 651.691406 545.921875 653.824219 C 552.769531 663.785156 559.378906 674.496094 565.5625 685.667969 C 581.585938 714.605469 606.453125 729.902344 637.476563 729.902344 L 637.480469 729.902344 C 642.742188 729.902344 648.226563 729.449219 653.777344 728.558594 C 673.402344 725.40625 687.746094 715.804688 696.40625 700.011719 C 699.804688 693.8125 704.347656 689.414063 711.132813 685.757813 C 731.074219 675.007813 743.230469 662.554688 749.386719 646.558594 C 760.964844 616.480469 764.089844 584.578125 758.949219 549.027344 C 756.105469 529.351563 749.445313 513.730469 738.589844 501.273438 "/>
</g>
<path style=" stroke:none;fill-rule:nonzero;fill:rgb(99.21875%,99.21875%,99.21875%);fill-opacity:1;" d="M 469.792969 453.835938 C 467.1875 447.925781 462.203125 444.929688 457.773438 441.40625 C 455.5625 439.652344 453.777344 438.15625 455.679688 435.019531 C 467.121094 416.175781 469.140625 395.335938 467.816406 374.019531 C 466.871094 358.84375 464.042969 343.960938 455.234375 331.039063 C 446.289063 317.925781 434.179688 317.882813 424.828125 330.640625 C 418.132813 339.777344 415.738281 350.492188 413.164063 361.210938 C 411.8125 366.832031 413.59375 369.773438 419.015625 371.667969 C 429.558594 375.351563 439.9375 379.519531 450.359375 383.550781 C 451.691406 384.066406 453.769531 384.324219 453.875 385.910156 C 454 387.808594 451.917969 388.433594 450.445313 389.152344 C 440.738281 393.898438 431.007813 398.578125 421.292969 403.3125 C 413.386719 407.164063 413.089844 407.273438 415.582031 415.578125 C 417.203125 420.972656 415.351563 421.304688 410.855469 420.378906 C 396.039063 417.328125 381.199219 417.519531 366.355469 420.386719 C 361.136719 421.394531 360.402344 420.546875 361.859375 415.214844 C 366.820313 397.054688 367.160156 378.710938 363.929688 360.285156 C 362.019531 349.398438 358.941406 338.835938 352.085938 329.847656 C 343.160156 318.148438 331.722656 318.242188 323.011719 330.035156 C 315.710938 339.917969 312.9375 351.46875 310.714844 363.273438 C 309.785156 368.207031 311.800781 370.375 316.160156 371.910156 C 325.648438 375.25 335.023438 378.902344 344.402344 382.535156 C 346.253906 383.253906 349.203125 383.667969 349.304688 385.699219 C 349.429688 388.175781 346.308594 388.589844 344.421875 389.523438 C 335.085938 394.171875 325.71875 398.757813 316.273438 403.183594 C 312.4375 404.980469 311.132813 407.347656 312.296875 411.605469 C 314.214844 418.636719 315.796875 425.90625 320.023438 431.855469 C 323.820313 437.199219 322.496094 439.96875 317.550781 443.324219 C 311.519531 447.414063 306.210938 452.503906 302.351563 459.332031 C 327.460938 441.953125 354.277344 429.496094 385.1875 428.328125 C 416.175781 427.15625 443.652344 438.105469 469.792969 453.835938 M 504.742188 455.367188 C 484.609375 459.324219 464.398438 462.710938 443.976563 464.867188 C 438.863281 465.40625 435.03125 464.617188 430.734375 461.285156 C 414.488281 448.699219 395.582031 446.757813 375.976563 449.714844 C 362.816406 451.695313 350.636719 456.113281 342.128906 467.296875 C 340.105469 469.960938 337.210938 469.570313 334.441406 469.574219 C 294.675781 469.648438 254.941406 468.441406 215.246094 466.089844 C 207.234375 465.617188 199.234375 464.964844 191.222656 464.480469 C 187.5 464.253906 185.820313 463.320313 187.445313 458.988281 C 193.542969 442.75 198.863281 426.261719 201.699219 409.078125 C 202.25 405.734375 204.3125 404.515625 207.503906 404.191406 C 217.457031 403.1875 225.707031 406.984375 233.296875 412.90625 C 235.753906 414.824219 237.691406 417.476563 241.917969 418.890625 C 239.511719 411.933594 237.089844 405.789063 235.257813 399.480469 C 224.183594 361.257813 222.273438 323.007813 236.769531 285.226563 C 248.6875 254.167969 270.640625 233.222656 303.105469 224.859375 C 327.8125 218.496094 349 226.652344 367.175781 243.734375 C 374.554688 250.675781 380.820313 258.550781 386.003906 267.234375 C 388.425781 271.296875 390.007813 271.285156 392.511719 267.179688 C 402.089844 251.472656 414.199219 238.097656 430.851563 229.769531 C 453.078125 218.660156 474.988281 221.507813 496.253906 232.863281 C 524.710938 248.066406 540.15625 272.890625 547.4375 303.414063 C 551.535156 320.582031 552.722656 338.046875 551.292969 355.6875 C 550.820313 361.53125 549.691406 366.898438 546.527344 372.066406 C 542.292969 378.984375 541.960938 386.921875 542.796875 394.855469 C 543.492188 401.402344 541.621094 406.832031 536.757813 411.484375 C 530.027344 417.921875 528.613281 426.335938 529.128906 435.191406 C 529.355469 439.089844 529.972656 442.964844 530.414063 446.851563 C 524.769531 449.257813 519.121094 451.664063 513.476563 454.070313 C 510.460938 453.488281 507.644531 454.359375 504.835938 455.265625 C 504.839844 455.265625 504.621094 455.230469 504.621094 455.230469 "/>
<path style=" stroke:none;fill-rule:nonzero;fill:rgb(99.21875%,99.21875%,99.21875%);fill-opacity:1;" d="M 70.296875 630.09375 C 71.085938 624.691406 71.65625 619.273438 70.800781 613.894531 C 70.308594 610.804688 69.125 607.84375 65.285156 608.078125 C 61.648438 608.296875 60.34375 611.074219 60.050781 614.285156 C 59.0625 625.152344 61.792969 635.363281 65.734375 645.335938 C 66.214844 646.558594 67.03125 647.84375 68.5625 647.617188 C 70.632813 647.308594 70.269531 645.484375 70.28125 644.058594 C 70.324219 639.40625 70.296875 634.75 70.296875 630.09375 M 108.558594 649.128906 C 108.800781 653.933594 109.011719 658.949219 109.328125 663.957031 C 109.425781 665.476563 109.917969 667.144531 111.671875 667.328125 C 113.796875 667.554688 113.726563 665.609375 113.960938 664.214844 C 115.0625 657.730469 117.722656 651.824219 120.519531 645.941406 C 122.917969 640.894531 125.019531 635.664063 124.898438 629.957031 C 124.824219 626.433594 124.59375 622.542969 120.058594 621.617188 C 115.324219 620.65625 112.980469 623.492188 111.304688 627.484375 C 108.398438 634.40625 108.921875 641.699219 108.558594 649.128906 M 100.675781 618.351563 C 100.773438 611.816406 97.957031 607.089844 93.929688 606.804688 C 88.679688 606.433594 86.691406 610.25 85.882813 614.398438 C 82.988281 629.261719 85.128906 644.003906 87.546875 658.699219 C 87.796875 660.210938 88.097656 662.445313 90.238281 662.308594 C 92.417969 662.167969 92.320313 660.085938 92.363281 658.394531 C 92.558594 651.097656 93.914063 644.03125 96.277344 637.117188 C 98.441406 630.78125 100.035156 624.289063 100.675781 618.351563 M 210.839844 578.109375 C 220.101563 587.058594 222.816406 597.84375 223.847656 609.585938 C 226.308594 608.152344 226.195313 606.835938 226.019531 605.933594 C 223.53125 592.910156 231.398438 582.21875 233.984375 570.351563 C 234.703125 567.039063 237.230469 567.117188 239.691406 568.527344 C 245.046875 571.59375 248.035156 576.34375 249.265625 582.316406 C 251.671875 594.039063 248.488281 604.921875 244.109375 615.550781 C 233.148438 642.15625 217.792969 665.6875 195.15625 683.929688 C 184.136719 692.808594 171.789063 698.269531 157.3125 698.679688 C 120.871094 699.710938 87.601563 690.777344 58.148438 668.65625 C 44.578125 658.464844 37.070313 644.703125 33.136719 628.714844 C 26.402344 601.367188 24.816406 573.742188 29.992188 545.949219 C 35.140625 518.296875 49.644531 497.496094 75.722656 485.769531 C 82.945313 482.523438 90.8125 481.53125 98.765625 482.363281 C 104.101563 482.921875 105.871094 485.53125 104.773438 490.78125 C 102.765625 500.355469 98.183594 508.984375 94.816406 518.054688 C 93.199219 522.410156 91.484375 526.765625 91.019531 531.453125 C 90.886719 532.808594 91.058594 534.304688 92.53125 534.722656 C 94.316406 535.230469 95.472656 533.878906 95.75 532.394531 C 98.839844 515.851563 109.675781 502.421875 113.753906 486.132813 C 120.417969 459.515625 126.433594 432.777344 132.046875 405.929688 C 135.148438 391.089844 139.019531 376.464844 147.613281 363.660156 C 151.738281 357.523438 156.640625 352.21875 164.769531 351.484375 C 181.40625 349.984375 191.382813 359.308594 192.988281 377.945313 C 193.910156 388.652344 192.699219 399.214844 190.570313 409.667969 C 185.160156 436.203125 178.140625 462.28125 167.902344 487.410156 C 163.074219 499.25 154.753906 509.035156 148.492188 520.035156 C 142.40625 530.726563 138.839844 542.222656 136.992188 554.296875 C 136.734375 555.976563 135.691406 557.964844 138.214844 559.824219 C 141.320313 554.046875 144.3125 548.351563 147.425781 542.726563 C 152.320313 533.890625 157.738281 525.398438 164.863281 518.15625 C 173.875 508.988281 184.0625 502.308594 197.6875 505.597656 C 213.265625 509.355469 222 520.082031 225.746094 535.160156 C 229.238281 549.207031 228.46875 563.339844 225.726563 577.40625 C 224.582031 583.277344 222.214844 583.96875 217.589844 580.089844 C 216.195313 578.921875 214.933594 577.484375 210.839844 578.109375 "/>
<path style=" stroke:none;fill-rule:nonzero;fill:rgb(99.21875%,99.21875%,99.21875%);fill-opacity:1;" d="M 197.121094 694.410156 C 183.3125 713.648438 164.105469 722.386719 140.730469 722.164063 C 121.300781 721.980469 104.453125 715.910156 92.84375 699.023438 C 102.570313 701.507813 112.347656 703.230469 122.136719 704.753906 C 140.621094 707.628906 159.144531 709.261719 177.445313 703.441406 C 184.355469 701.246094 190.324219 697.089844 197.121094 694.410156 "/>
<path style=" stroke:none;fill-rule:nonzero;fill:rgb(99.21875%,99.21875%,99.21875%);fill-opacity:1;" d="M 708.792969 630.425781 C 708.792969 634.878906 708.78125 639.328125 708.800781 643.777344 C 708.808594 645.226563 708.382813 647.210938 710.117188 647.640625 C 712.019531 648.113281 713.015625 646.402344 713.644531 644.765625 C 717.410156 634.980469 719.945313 624.988281 718.972656 614.359375 C 718.671875 611.046875 717.445313 608.335938 713.933594 608.070313 C 710.246094 607.789063 708.933594 610.5625 708.367188 613.773438 C 707.386719 619.328125 707.949219 624.875 708.792969 630.425781 M 670.765625 649.582031 C 670.671875 649.574219 670.578125 649.570313 670.488281 649.5625 C 670.488281 647.332031 670.511719 645.101563 670.480469 642.871094 C 670.410156 637.0625 669.6875 631.355469 667.214844 626.03125 C 665.648438 622.65625 662.949219 620.863281 659.132813 621.546875 C 655.503906 622.199219 654.621094 625.121094 654.351563 628.207031 C 654.003906 632.136719 654.617188 635.976563 656.007813 639.683594 C 659.1875 648.164063 664.203125 655.976563 665.277344 665.234375 C 665.394531 666.257813 665.800781 667.570313 667.296875 667.375 C 668.839844 667.171875 669.449219 665.882813 669.574219 664.570313 C 670.039063 659.578125 670.378906 654.578125 670.765625 649.582031 M 694.429688 633.539063 C 694.9375 625.042969 694.414063 619.105469 692.929688 613.320313 C 692.007813 609.738281 689.972656 606.675781 685.707031 606.757813 C 681.695313 606.835938 679.960938 609.859375 678.980469 613.214844 C 677.902344 616.890625 678.707031 620.558594 679.410156 624.242188 C 681.566406 635.527344 686.894531 646.113281 686.734375 657.898438 C 686.710938 659.757813 686.511719 662.269531 688.84375 662.390625 C 690.960938 662.5 691.359375 659.960938 691.738281 658.195313 C 693.648438 649.246094 693.683594 640.09375 694.429688 633.539063 M 553.320313 608.570313 C 556.925781 606.101563 556.195313 602.648438 556.664063 599.722656 C 557.707031 593.238281 560.265625 587.660156 564.453125 582.675781 C 565.519531 581.40625 567.933594 579.695313 565.996094 578.085938 C 564.394531 576.761719 562.742188 579.105469 561.371094 580.226563 C 556.871094 583.890625 554.546875 583.496094 553.515625 577.890625 C 550.164063 559.679688 549.253906 541.585938 557.558594 524.15625 C 565.5625 507.347656 590.523438 496.785156 609.046875 513.210938 C 620.03125 522.949219 627.585938 535.03125 634.449219 547.71875 C 636.617188 551.730469 638.140625 556.144531 642.300781 560.835938 C 642.8125 551.789063 640.230469 544.667969 638.238281 537.527344 C 635.347656 527.175781 630.148438 517.804688 623.835938 509.265625 C 611.234375 492.230469 605.074219 472.484375 599.136719 452.660156 C 594.164063 436.046875 589.847656 419.226563 587.230469 402.046875 C 585.453125 390.363281 584.492188 378.632813 588.589844 367.179688 C 591.371094 359.394531 596.070313 353.273438 604.730469 351.742188 C 614.132813 350.082031 622.574219 351.886719 628.820313 359.902344 C 636.671875 369.976563 641.261719 381.589844 644.128906 393.832031 C 648.640625 413.089844 652.390625 432.519531 656.941406 451.765625 C 662.429688 474.980469 667.121094 498.492188 679.394531 519.5 C 681.164063 522.523438 682.179688 526 682.753906 529.539063 C 683.132813 531.839844 683.175781 535.335938 686.425781 534.535156 C 689.585938 533.761719 688.121094 530.40625 687.570313 528.238281 C 685.695313 520.8125 682.742188 513.742188 679.691406 506.738281 C 677.601563 501.933594 675.871094 497.035156 674.679688 491.929688 C 673.0625 485.011719 674.769531 482.546875 681.964844 482.230469 C 698.429688 481.515625 711.949219 488.09375 723.90625 498.953125 C 740.105469 513.664063 747.9375 532.398438 750.441406 553.597656 C 753.96875 583.453125 752.152344 612.824219 741.757813 641.378906 C 736.855469 654.839844 727.460938 664.367188 716.042969 672.214844 C 685.25 693.382813 651.015625 701.363281 614.0625 697.921875 C 602.59375 696.855469 592.730469 691.175781 584.003906 683.988281 C 557.898438 662.492188 540.746094 634.964844 530.722656 602.894531 C 528.597656 596.085938 528.378906 588.914063 529.9375 581.820313 C 531.164063 576.265625 534.066406 571.820313 538.933594 568.867188 C 541.910156 567.066406 544.601563 566.625 545.300781 571.398438 C 545.621094 573.582031 546.378906 575.769531 547.296875 577.789063 C 551.703125 587.507813 554.695313 597.496094 553.320313 608.570313 "/>
<path style=" stroke:none;fill-rule:nonzero;fill:rgb(99.21875%,99.21875%,99.21875%);fill-opacity:1;" d="M 686.78125 699.324219 C 677.328125 712.863281 664.09375 719.144531 648.550781 721.421875 C 617.800781 725.921875 592.339844 711.351563 582.027344 694.824219 C 584.265625 694.796875 586.050781 695.664063 587.628906 696.691406 C 601.730469 705.847656 617.472656 707.914063 633.75 707.148438 C 650.355469 706.371094 666.757813 704.054688 682.695313 699.078125 C 683.734375 698.753906 684.777344 698.226563 686.78125 699.324219 "/>
<path style=" stroke:none;fill-rule:nonzero;fill:rgb(99.21875%,99.21875%,99.21875%);fill-opacity:1;" d="M 366.929688 467.910156 C 368.183594 464.847656 371.035156 463.769531 373.75 462.738281 C 384.105469 458.800781 394.402344 458.890625 404.601563 463.464844 C 406.066406 464.117188 407.367188 464.671875 407.144531 466.53125 C 407.011719 467.675781 406.050781 467.941406 405.097656 467.964844 C 392.679688 468.210938 380.285156 469.636719 367.851563 468.632813 C 367.554688 468.609375 367.289063 468.203125 366.929688 467.910156 "/>
<path style=" stroke:none;fill-rule:nonzero;fill:rgb(99.609375%,2.352905%,3.137207%);fill-opacity:1;" d="M 731.191406 481.789063 C 730.683594 480.234375 730.160156 478.632813 729.558594 477.089844 L 728.699219 474.792969 C 728.164063 474.054688 727.640625 473.308594 727.113281 472.5625 C 725.96875 470.9375 724.78125 469.257813 723.507813 467.683594 L 722.328125 466.226563 C 718.054688 460.9375 713.636719 455.464844 707.792969 451.601563 C 705.195313 447.457031 701.054688 445.515625 697.050781 443.636719 C 694.929688 442.640625 692.738281 441.613281 690.773438 440.257813 C 686.414063 439.148438 681.785156 437.820313 677.457031 435.589844 C 674.109375 433.863281 670.460938 433.792969 666.929688 433.726563 L 666.441406 433.71875 C 664.632813 433.71875 663.378906 434.183594 662.71875 435.097656 C 662.0625 436.003906 662.015625 437.332031 662.578125 439.023438 L 662.714844 440.355469 L 664.277344 447.875 C 665.566406 454.09375 666.855469 460.308594 668.167969 466.515625 C 669.269531 471.71875 670.574219 473.304688 673.757813 473.304688 C 674.90625 473.304688 676.332031 473.097656 678.519531 472.605469 C 682.003906 471.832031 685.453125 471.433594 688.769531 471.433594 C 697.550781 471.433594 705.777344 474.1875 713.253906 479.632813 C 717.238281 480.742188 720.34375 483.328125 723.34375 485.824219 C 724.410156 486.714844 725.511719 487.632813 726.644531 488.472656 C 727.585938 489.113281 728.394531 490.015625 729.171875 490.894531 C 730.675781 492.585938 732.230469 494.332031 734.878906 494.332031 C 735.167969 494.332031 735.46875 494.3125 735.839844 494.246094 C 736.425781 493.742188 736.480469 493.15625 735.996094 492.558594 C 733.636719 489.285156 732.394531 485.472656 731.191406 481.789063 "/>
<path style=" stroke:none;fill-rule:nonzero;fill:rgb(99.609375%,2.352905%,3.137207%);fill-opacity:1;" d="M 736.351563 486.667969 L 736.152344 486.675781 C 736.15625 486.839844 736.15625 486.902344 736.253906 486.902344 L 736.296875 486.902344 L 736.328125 486.871094 C 736.359375 486.839844 736.359375 486.839844 736.351563 486.667969 "/>
<path style=" stroke:none;fill-rule:nonzero;fill:rgb(99.609375%,2.352905%,3.137207%);fill-opacity:1;" d="M 565.171875 480.191406 C 563.386719 479.347656 561.597656 478.382813 559.867188 477.453125 C 554.554688 474.59375 549.0625 471.636719 542.882813 471.636719 C 540.773438 471.636719 538.726563 471.96875 536.648438 472.644531 C 534.324219 472.832031 531.375 473.359375 529.179688 475.820313 C 527.171875 478.066406 524.890625 480.617188 521.9375 480.617188 C 520.640625 480.617188 519.296875 480.152344 517.832031 479.191406 C 517.710938 479.109375 517.5625 479.074219 517.375 479.074219 C 516.988281 479.074219 516.496094 479.242188 516.019531 479.40625 C 515.707031 479.515625 515.394531 479.625 515.085938 479.695313 L 508.617188 483.703125 C 507.765625 483.929688 507.078125 484.480469 506.410156 485.011719 C 505.527344 485.71875 504.695313 486.382813 503.507813 486.382813 L 503.273438 486.394531 L 496.066406 491.195313 L 491.9375 493.996094 C 491.117188 494.535156 490.347656 495.207031 489.605469 495.859375 C 487.746094 497.488281 485.824219 499.167969 482.769531 499.167969 L 482.765625 499.167969 C 482.621094 499.167969 482.476563 499.164063 482.328125 499.15625 L 485.257813 494.246094 C 485.46875 494 485.699219 493.773438 485.945313 493.570313 C 486.265625 493.25 486.636719 492.957031 487 492.671875 C 488.121094 491.78125 489.285156 490.867188 489.164063 489.050781 L 490.199219 488.515625 C 490.300781 488.53125 490.390625 488.539063 490.476563 488.539063 C 491.078125 488.539063 491.4375 488.1875 491.523438 487.535156 C 494.066406 486.226563 495.851563 484.160156 497.585938 481.992188 L 503.714844 477.167969 L 506.035156 475.070313 L 508.195313 473.09375 C 510.230469 472.886719 511.480469 472.054688 512.125 470.480469 C 512.394531 470.59375 512.652344 470.652344 512.914063 470.652344 C 513.554688 470.652344 514.09375 470.308594 514.613281 469.976563 C 514.9375 469.773438 515.269531 469.558594 515.621094 469.4375 C 517.941406 468.628906 519.988281 467.285156 521.96875 465.988281 C 524.320313 464.445313 526.753906 462.847656 529.722656 462.066406 C 533.761719 461.003906 535.65625 460.308594 536.203125 458.996094 C 536.800781 457.554688 535.636719 455.445313 533.359375 451.53125 C 532.722656 450.4375 532.0625 449.359375 531.402344 448.28125 L 530.453125 446.726563 L 513.425781 453.984375 C 513.105469 454.15625 512.910156 454.371094 512.855469 454.621094 C 512.804688 454.847656 512.863281 455.097656 513.035156 455.371094 C 511.738281 455.886719 510.445313 456.472656 509.195313 457.039063 C 506.199219 458.398438 503.097656 459.808594 499.722656 460.335938 L 493.089844 462.257813 C 490.367188 462.875 487.660156 463.730469 485.042969 464.554688 C 480.308594 466.050781 475.40625 467.601563 470.257813 467.78125 L 451.890625 471.578125 C 448.621094 472.757813 445.15625 473.007813 441.800781 473.25 C 439.996094 473.378906 438.132813 473.511719 436.316406 473.789063 C 430.714844 474.644531 425 475.382813 419.472656 476.097656 C 417.085938 476.40625 414.699219 476.714844 412.335938 477.035156 C 411.789063 477.003906 411.238281 476.992188 410.695313 476.992188 C 407.464844 476.992188 404.230469 477.460938 401.097656 477.914063 C 399.890625 478.089844 398.679688 478.265625 397.472656 478.414063 L 383.976563 479.46875 L 377.652344 479.722656 L 366.5 480.703125 C 366.09375 480.71875 365.683594 480.722656 365.273438 480.722656 L 363.636719 480.714844 C 362.050781 480.714844 360.21875 480.78125 358.546875 481.535156 C 358.257813 481.5 357.96875 481.484375 357.679688 481.484375 C 356.371094 481.484375 355.054688 481.808594 353.78125 482.125 C 352.519531 482.4375 351.214844 482.761719 349.929688 482.761719 C 348.703125 482.761719 347.609375 482.464844 346.539063 481.835938 L 340.472656 481.878906 L 340.277344 481.910156 C 340.199219 481.988281 340.121094 482.027344 340.050781 482.027344 C 339.980469 482.027344 339.90625 481.988281 339.757813 481.882813 L 339.515625 481.882813 C 338.375 481.882813 337.234375 481.835938 336.09375 481.792969 C 334.96875 481.75 333.808594 481.703125 332.664063 481.703125 C 330.714844 481.703125 328.140625 481.816406 325.578125 482.691406 C 324.460938 482.78125 323.300781 482.972656 322.179688 483.160156 C 320.621094 483.417969 319.007813 483.683594 317.503906 483.683594 C 316.535156 483.683594 315.695313 483.574219 314.929688 483.355469 C 312.289063 482.585938 309.480469 482.214844 306.351563 482.214844 C 303.816406 482.214844 301.308594 482.457031 299.203125 482.691406 L 263.535156 482.070313 L 255.722656 481.910156 L 249.023438 481.738281 L 236.910156 481.542969 L 228.230469 481.007813 L 225.292969 480.972656 L 220.515625 480.683594 C 216.335938 479.941406 212.632813 479.582031 209.199219 479.582031 C 208.257813 479.582031 207.316406 479.609375 206.417969 479.664063 C 205.589844 479.605469 204.734375 479.574219 203.8125 479.574219 C 201.613281 479.574219 199.378906 479.746094 197.222656 479.910156 C 195.066406 480.074219 192.839844 480.242188 190.648438 480.242188 C 189.101563 480.242188 187.714844 480.160156 186.398438 479.988281 C 186.191406 479.964844 185.992188 479.949219 185.804688 479.949219 C 184 479.949219 182.972656 481.171875 182.832031 483.480469 C 182.769531 484.542969 182.449219 485.609375 182.140625 486.640625 C 181.558594 488.574219 180.957031 490.578125 182.011719 492.675781 C 182.074219 492.796875 182.246094 492.851563 182.570313 492.851563 C 182.925781 492.851563 183.457031 492.785156 184.15625 492.652344 C 185.714844 492.351563 187.335938 492.199219 188.980469 492.199219 C 194.355469 492.199219 199.566406 493.804688 204.601563 495.355469 C 206.089844 495.816406 207.574219 496.273438 209.046875 496.683594 L 216.097656 500.640625 L 221.253906 504.761719 L 222.941406 507.398438 C 229.304688 512.042969 231.84375 519.042969 234.078125 526.394531 C 234.363281 528.769531 235.167969 530.78125 236.546875 532.542969 C 238.382813 534.898438 238.867188 537.382813 237.945313 539.734375 C 236.710938 542.886719 236.882813 546.128906 237.046875 549.257813 C 237.074219 549.746094 237.101563 550.238281 237.121094 550.734375 C 237.179688 551.285156 237.203125 551.851563 237.230469 552.417969 C 237.359375 555.101563 237.492188 557.882813 241 559.164063 L 242.804688 559.960938 C 246.855469 561.148438 249.527344 563.253906 251.472656 566.785156 L 251.648438 567.097656 C 253.402344 570.28125 255.214844 573.574219 257.300781 576.621094 L 257.445313 576.910156 L 257.246094 577.222656 C 257.214844 578.203125 257.585938 578.867188 258.378906 579.246094 C 259.992188 585.339844 260.003906 591.796875 258.425781 598.980469 C 258.007813 600.878906 257.355469 602.75 256.726563 604.5625 C 255.589844 607.816406 254.417969 611.183594 254.566406 614.808594 C 253.378906 615.054688 253.113281 616.082031 253.019531 616.835938 C 251.960938 625.28125 248.039063 632.785156 244.25 640.042969 L 243.960938 640.597656 C 240.269531 647.667969 235.652344 654.300781 231.183594 660.710938 C 228 665.285156 224.710938 670.011719 221.777344 674.859375 C 220.027344 677.753906 219.480469 679.667969 219.949219 681.265625 C 220.4375 682.921875 222.019531 684.304688 225.238281 685.882813 C 235.496094 690.90625 243.261719 696.125 249.675781 702.304688 C 252.03125 704.574219 253.035156 706.605469 253.351563 709.765625 C 251.472656 709.214844 250.367188 708.015625 249.296875 706.855469 C 248.730469 706.246094 248.195313 705.664063 247.5625 705.191406 C 247.304688 704.96875 247.117188 704.695313 246.980469 704.324219 C 244.6875 702.382813 241.945313 701.167969 239.320313 700.144531 C 239.320313 698.488281 237.984375 698.160156 236.894531 697.898438 L 233.484375 697.527344 C 233.753906 695.902344 232.691406 695.632813 231.664063 695.375 C 231.46875 695.324219 231.269531 695.277344 231.074219 695.214844 C 230.457031 695.023438 229.835938 694.835938 229.214844 694.648438 C 225.507813 693.523438 221.675781 692.363281 218.347656 690.136719 L 218.214844 690.050781 L 218.191406 690.207031 C 217.34375 695.648438 215.753906 700.941406 213.46875 705.9375 L 213.4375 706.007813 L 213.492188 706.054688 C 215.757813 708.042969 215.246094 710.40625 214.753906 712.6875 C 214.597656 713.40625 214.4375 714.144531 214.371094 714.851563 C 213.558594 723.523438 212.636719 733.351563 214.148438 743.121094 L 214.5625 746.675781 C 215.355469 754.410156 218.644531 761.363281 221.824219 768.085938 C 222.65625 769.847656 223.519531 771.664063 224.328125 773.484375 C 226.089844 776.023438 226.941406 778.980469 227.769531 781.84375 C 228.464844 784.265625 229.183594 786.765625 230.464844 789.03125 C 233.472656 792.503906 235.03125 796.773438 236.542969 800.902344 C 236.847656 801.734375 237.148438 802.5625 237.464844 803.390625 C 238.988281 807.378906 240.257813 809.691406 242.253906 809.691406 C 243.804688 809.691406 245.757813 808.316406 248.210938 806.25 C 252.957031 802.261719 257.699219 798.101563 262.285156 794.078125 C 264.3125 792.300781 266.34375 790.519531 268.386719 788.738281 L 271.292969 785.328125 L 277.382813 779.867188 L 283.695313 774.191406 C 284.125 770.375 286.019531 768.519531 289.554688 768.511719 C 291.511719 767.808594 292.953125 766.398438 294.351563 765.03125 C 294.675781 764.710938 295 764.394531 295.332031 764.085938 L 295.359375 764.046875 L 296.226563 763.417969 L 302.277344 758.960938 L 302.34375 758.996094 L 302.394531 758.945313 C 303.203125 758.160156 304.210938 757.601563 305.183594 757.058594 C 306.515625 756.316406 307.894531 755.546875 308.78125 754.214844 L 316.042969 749.753906 C 316.304688 749.605469 316.566406 749.464844 316.835938 749.324219 C 318.171875 748.609375 319.558594 747.875 320.089844 746.253906 C 323.296875 744.027344 326.726563 742.023438 330.039063 740.085938 C 332.636719 738.566406 335.324219 736.992188 337.878906 735.328125 C 340 733.945313 342.445313 733.320313 344.808594 732.710938 C 347.972656 731.898438 351.242188 731.058594 353.601563 728.414063 C 358.035156 727.359375 362.222656 725.464844 366.273438 723.632813 C 370.476563 721.730469 374.820313 719.765625 379.480469 718.714844 C 390.222656 716.296875 401.003906 713.210938 411.425781 710.222656 C 414.570313 709.324219 417.710938 708.425781 420.855469 707.542969 C 428.371094 705.429688 435.988281 703.183594 443.351563 701.015625 C 446.648438 700.046875 449.941406 699.074219 453.226563 698.117188 C 454.753906 697.867188 456.175781 697.195313 457.546875 696.546875 C 459.265625 695.734375 461.042969 694.894531 463.042969 694.894531 C 463.183594 694.894531 463.324219 694.898438 463.511719 694.898438 C 465.933594 693.925781 468.359375 692.953125 470.800781 691.976563 L 471.960938 691.335938 C 475.875 689.171875 479.785156 687.007813 483.617188 684.851563 L 484.757813 685.167969 L 485.214844 685.261719 L 492.761719 681.136719 L 493.898438 680.203125 L 498.671875 677.542969 C 498.9375 677.3125 499.25 677.164063 499.640625 677.085938 L 506.019531 672.867188 C 508.476563 672.300781 510.335938 670.753906 512.132813 669.253906 C 512.738281 668.75 513.347656 668.246094 513.980469 667.773438 L 521.507813 661.082031 C 521.710938 661.144531 521.902344 661.171875 522.078125 661.171875 C 522.722656 661.171875 523.195313 660.78125 523.519531 659.992188 L 525.085938 658.003906 C 526.1875 656.972656 527.285156 655.941406 528.382813 654.90625 C 530.976563 652.460938 533.65625 649.933594 536.363281 647.523438 C 538.441406 645.675781 537.742188 643.847656 536.769531 641.980469 C 536.378906 641.234375 535.980469 640.496094 535.578125 639.757813 C 533.90625 636.675781 532.179688 633.492188 531.449219 629.917969 L 527.136719 619.773438 C 524.246094 613.324219 521.296875 605.554688 521.34375 596.839844 L 520.523438 589.324219 C 521.675781 573.25 527.980469 563.546875 540.367188 558.789063 C 542.320313 558.035156 543.097656 556.320313 542.503906 554.082031 L 542.382813 553.46875 C 541.0625 546.574219 539.691406 539.449219 543.441406 532.691406 C 544.691406 530.859375 545.148438 528.738281 545.597656 526.6875 C 545.933594 525.140625 546.28125 523.539063 546.964844 522.085938 L 549.980469 515.808594 C 556.257813 509.726563 559.394531 501.832031 562.429688 494.195313 C 563.617188 491.207031 564.84375 488.113281 566.242188 485.175781 C 566.871094 483.855469 567.035156 482.679688 566.714844 481.78125 C 566.472656 481.097656 565.953125 480.5625 565.171875 480.191406 "/>
<path style=" stroke:none;fill-rule:nonzero;fill:rgb(99.609375%,2.352905%,3.137207%);fill-opacity:1;" d="M 664.054688 424.71875 C 672.613281 422.589844 681.3125 419.472656 686.964844 411.132813 C 689.113281 408.785156 690.574219 406.363281 691.410156 403.761719 C 692.507813 402.441406 693.628906 400.855469 693.0625 398.828125 C 695.144531 396.777344 695.6875 394.101563 696.210938 391.515625 C 696.347656 390.832031 696.484375 390.148438 696.664063 389.445313 L 697.328125 387.960938 C 697.328125 387.960938 698.84375 382.5625 699.285156 380.996094 C 701.5 373.15625 700.011719 370.023438 692.65625 367.039063 C 692.1875 366.851563 691.71875 366.640625 691.253906 366.429688 C 689.675781 365.71875 688.046875 364.984375 686.222656 364.984375 C 686.0625 364.984375 685.898438 364.988281 685.761719 365.003906 L 666.511719 361.835938 C 666.203125 361.714844 665.84375 361.636719 665.496094 361.5625 C 664.535156 361.359375 663.621094 361.164063 663.5625 360.050781 C 663.476563 358.414063 665.460938 357.792969 666.074219 357.640625 C 667.191406 357.363281 668.308594 357.070313 669.421875 356.777344 C 674.25 355.507813 679.242188 354.199219 684.246094 354.199219 C 687.136719 354.199219 689.796875 354.625 692.386719 355.503906 L 693.496094 355.71875 L 700.007813 357.351563 L 700.246094 357.351563 C 701.683594 357.351563 702.675781 357.046875 703.285156 356.417969 C 704.144531 355.527344 704.09375 354.125 704.042969 352.769531 C 704.003906 351.65625 703.964844 350.503906 704.4375 349.679688 C 704.878906 348.875 705.1875 347.972656 704.179688 347.324219 L 704.296875 346.6875 C 705.21875 341.480469 706.171875 336.09375 705.492188 330.613281 L 705.476563 326.753906 L 705.378906 324.769531 C 705.132813 319.746094 704.878906 314.554688 703.144531 309.636719 C 702.4375 308.207031 702.058594 306.605469 701.695313 305.0625 C 701.078125 302.464844 700.445313 299.78125 698.28125 297.828125 C 697.648438 294.808594 695.953125 292.355469 694.285156 290.121094 C 694.078125 289.601563 693.882813 289.070313 693.691406 288.539063 C 693.269531 287.378906 692.835938 286.183594 692.242188 285.085938 C 691.183594 283.121094 690.136719 282.125 689.128906 282.125 C 688.128906 282.125 687.175781 283.117188 686.3125 285.046875 L 680.089844 292.21875 C 673.03125 301.113281 663.777344 307.636719 654.828125 313.949219 C 651.578125 316.238281 648.222656 318.609375 645.046875 321.039063 C 644.460938 321.234375 643.585938 321.527344 643.636719 322.570313 C 639.957031 323.859375 636.710938 326.042969 633.714844 329.242188 L 633.703125 329.242188 C 631.546875 329.765625 629.851563 331.085938 628.210938 332.363281 C 627.410156 332.984375 626.578125 333.628906 625.710938 334.167969 C 623.648438 335.449219 622.679688 336.609375 622.835938 337.613281 C 622.992188 338.648438 624.34375 339.5 626.820313 340.128906 L 632.261719 343.742188 L 641.519531 355.78125 C 644.101563 359.503906 645.988281 363.046875 647.296875 366.617188 L 648.335938 368.558594 L 648.414063 368.613281 L 649.402344 371.609375 L 650.472656 374.820313 C 650.671875 375.042969 650.722656 375.285156 650.632813 375.640625 L 651.667969 377.523438 L 651.683594 377.542969 C 651.949219 380.6875 652.644531 383.6875 653.742188 386.4375 L 654.910156 391.335938 L 655.9375 399.328125 C 656.828125 406.289063 657.753906 413.488281 658.714844 420.5625 C 659.113281 423.496094 660.359375 424.921875 662.53125 424.921875 C 662.996094 424.921875 663.507813 424.855469 664.054688 424.71875 "/>
<path style=" stroke:none;fill-rule:nonzero;fill:rgb(99.609375%,2.352905%,3.137207%);fill-opacity:1;" d="M 602.109375 488.761719 C 600.734375 484.191406 599.316406 479.46875 595.964844 475.703125 C 591.355469 464.234375 588.402344 455.253906 586.351563 446.535156 C 584.417969 445.097656 584.03125 442.964844 583.660156 440.902344 C 583.554688 440.3125 583.449219 439.722656 583.3125 439.164063 C 583.113281 434.726563 581.898438 430.433594 580.722656 426.28125 C 580.023438 423.824219 579.304688 421.28125 578.804688 418.738281 C 575.796875 403.476563 573.035156 387.167969 575.160156 370.375 C 575.25 369.921875 575.359375 369.46875 575.46875 369.015625 C 575.707031 368.023438 575.953125 367 575.96875 365.984375 C 575.984375 364.898438 575.8125 364.191406 575.441406 363.816406 C 575.242188 363.613281 574.980469 363.507813 574.667969 363.507813 C 573.96875 363.507813 573.066406 364.027344 572.285156 364.53125 C 560.839844 369.828125 553.683594 378.488281 551.015625 390.277344 L 550.898438 390.234375 L 550.875 390.351563 C 550.761719 390.90625 550.570313 391.5 550.386719 392.074219 C 549.976563 393.359375 549.550781 394.691406 549.914063 395.746094 C 550.257813 396.742188 550.292969 397.980469 550.328125 399.175781 C 550.417969 402.316406 550.511719 405.5625 555.765625 405.5625 L 555.773438 405.5625 C 556.71875 405.925781 557.710938 406.25 558.667969 406.5625 C 562.679688 407.875 566.832031 409.234375 568.796875 413.914063 C 569.101563 414.179688 569.417969 414.433594 569.734375 414.683594 C 570.417969 415.222656 571.121094 415.78125 571.660156 416.445313 L 571.859375 416.691406 C 573.1875 418.324219 575.007813 420.566406 573.914063 422.011719 C 573.5625 422.476563 573.183594 422.703125 572.746094 422.703125 C 572.050781 422.703125 571.28125 422.117188 570.539063 421.550781 C 569.988281 421.132813 569.417969 420.695313 568.859375 420.484375 C 568.417969 420.316406 568.003906 420.050781 567.601563 419.796875 C 566.894531 419.347656 566.164063 418.886719 565.261719 418.886719 C 565.101563 418.886719 564.933594 418.902344 564.847656 418.957031 C 562.246094 416.625 559.296875 415.441406 556.085938 415.441406 C 555.496094 415.441406 554.894531 415.484375 554.304688 415.558594 C 553.648438 415.503906 553.117188 415.476563 552.632813 415.476563 C 550.832031 415.476563 548.585938 415.800781 547.238281 418.28125 C 545.671875 418.484375 545.21875 419.609375 544.78125 420.695313 C 544.613281 421.113281 544.441406 421.539063 544.203125 421.914063 C 541.640625 427.34375 541.550781 433.132813 543.933594 439.085938 C 543.980469 442.960938 546.144531 445.941406 548.234375 448.824219 L 548.402344 449.054688 L 549.964844 450.902344 C 558.210938 461.609375 569.378906 469.128906 580.175781 476.402344 L 583.0625 478.351563 L 583.070313 478.351563 L 588.359375 481.707031 L 590.511719 483.0625 C 590.847656 483.519531 591.402344 483.859375 591.9375 484.183594 C 593.03125 484.847656 594.066406 485.476563 593.277344 487.054688 C 592.742188 488.121094 591.613281 488.785156 590.328125 488.785156 C 589.65625 488.785156 589 488.601563 588.480469 488.265625 C 586.59375 487.042969 584.925781 486.449219 583.386719 486.449219 C 580.074219 486.449219 577.910156 489.140625 575.683594 493.183594 L 575.597656 493.335938 L 575.773438 493.332031 C 577.175781 493.296875 578.585938 493.234375 580 493.171875 C 582.144531 493.074219 584.359375 492.976563 586.539063 492.976563 C 590.410156 492.976563 595.496094 493.242188 600.527344 495.324219 C 601.09375 495.554688 601.910156 495.832031 602.597656 495.832031 C 603.097656 495.832031 603.453125 495.6875 603.65625 495.394531 C 603.941406 494.992188 603.917969 494.328125 603.59375 493.421875 C 603.050781 491.894531 602.570313 490.300781 602.109375 488.761719 "/>
<path style=" stroke:none;fill-rule:nonzero;fill:rgb(99.609375%,2.352905%,3.137207%);fill-opacity:1;" d="M 504.886719 455.351563 L 505.144531 455.207031 L 504.847656 455.164063 L 504.363281 455.085938 L 504.742188 455.519531 "/>
</g>
</svg>
